<?xml version="1.0" encoding="utf-8"?>
<!-- Generator: Adobe Illustrator 18.0.0, SVG Export Plug-In . SVG Version: 6.00 Build 0)  -->
<!DOCTYPE svg PUBLIC "-//W3C//DTD SVG 1.1//EN" "http://www.w3.org/Graphics/SVG/1.1/DTD/svg11.dtd">
<svg version="1.1" id="Capa_1" xmlns="http://www.w3.org/2000/svg" xmlns:xlink="http://www.w3.org/1999/xlink" x="0px" y="0px"
	 width="800px" height="800px" viewBox="158.7 50 800 800" enable-background="new 158.7 50 800 800" xml:space="preserve">
<g>
	<path fill="#333333" d="M633.2,396.1c0,38.5-21.3,58.5-57.3,58.3c-5.6,0-11.4,0-15.2-0.7V345.1c4-0.9,10.1-1.5,18.8-1.5
		C614.1,343.6,633.5,362.9,633.2,396.1z M450.7,343.4c-7.6,0-13,0.7-15.9,1.3v50.8c3.6,1.1,7.8,1.4,13.5,1.4
		c20.6,0,33.2-10.3,33.2-27.9C481.5,352.1,469.8,343.4,450.7,343.4z M823.1,280.4v237.4H334.3V280.4H823.1z M508.9,367.8
		c0-14.2-5.9-26.1-14.9-33.5c-9.6-8.1-24.2-12.4-44.5-12.4c-18.4,0-32.2,1.4-42.3,3.2v149.4h27.4v-57.3c3.8,0.9,8.3,1.1,13.5,1.1
		c19.6,0,36.6-5.4,47.9-16.4C504.4,393.9,509,382.2,508.9,367.8z M662.5,395.2c0-25.6-9-43.9-23.8-55.7
		c-14-11.7-33.3-17.5-61.7-17.5c-16.3,0-31.6,1.4-44,3.2v149c9.2,1.1,21.4,2,37.3,2c29.5,0,53.5-6.9,68.6-20.7
		C653.3,442.5,662.5,422.4,662.5,395.2z M714.3,387.6v-41.8h60v-22.7h-87.6v151.5h27.7v-64.5h55.7v-22.5
		C770.1,387.6,714.3,387.6,714.3,387.6z M888.2,683.7L888.2,683.7H723.9V796l-2.4,1.5H229.2V102.5h658.9v170.7h70.6V76.3
		c0-14.5-15.8-26.3-35.2-26.3H193.9c-19.6,0-35.2,11.8-35.2,26.3v747.5c0,14.6,15.7,26.2,35.2,26.2h541.2c8.7,0,17.1-2.3,23.5-6.7
		L947,718c7.4-5,11.7-12.1,11.7-19.6V533.6h-70.6C888.2,533.6,888.2,683.7,888.2,683.7z"/>
</g>
</svg>
