<?xml version="1.0" encoding="utf-8"?>
<!-- Generator: Adobe Illustrator 18.0.0, SVG Export Plug-In . SVG Version: 6.00 Build 0)  -->
<!DOCTYPE svg PUBLIC "-//W3C//DTD SVG 1.1//EN" "http://www.w3.org/Graphics/SVG/1.1/DTD/svg11.dtd">
<svg version="1.1" id="Capa_1" xmlns="http://www.w3.org/2000/svg" xmlns:xlink="http://www.w3.org/1999/xlink" x="0px" y="0px"
	 width="90px" height="90px" viewBox="0 0 90 90" enable-background="new 0 0 90 90" xml:space="preserve">
<g>
	<path id="Facebook__x28_alt_x29_" fill="#333333" d="M90,15c0-7.9-7.1-15-15-15H15C7.1,0,0,7.1,0,15v60c0,7.9,7.1,15,15,15h30V56
		H34V41h11v-5.8C45,25.1,52.6,16,61.9,16H74v15H61.9c-1.3,0-2.9,1.6-2.9,4v6h15v15H59v34h16c7.9,0,15-7.1,15-15V15z"/>
</g>
</svg>
