<?xml version="1.0" encoding="utf-8"?>
<!-- Generator: Adobe Illustrator 18.0.0, SVG Export Plug-In . SVG Version: 6.00 Build 0)  -->
<!DOCTYPE svg PUBLIC "-//W3C//DTD SVG 1.1//EN" "http://www.w3.org/Graphics/SVG/1.1/DTD/svg11.dtd">
<svg version="1.1" id="Layer_1" xmlns="http://www.w3.org/2000/svg" xmlns:xlink="http://www.w3.org/1999/xlink" x="0px" y="0px"
	 width="150px" height="114px" viewBox="140.3 22.2 150 114" enable-background="new 140.3 22.2 150 114" xml:space="preserve">
<g>
	<g>
		<path d="M284.2,131.9v-2.6l2-3.4h-0.5l-1,1.8c-0.3,0.5-0.5,0.9-0.7,1.3h0c-0.2-0.4-0.4-0.8-0.7-1.3l-1-1.8h-0.5l1.9,3.4v2.5H284.2
			z"/>
		<path d="M284.4,132h-0.7v-2.7l-2-3.5h0.7l1,1.8c0.2,0.4,0.4,0.7,0.6,1.1c0.1-0.3,0.3-0.5,0.4-0.8l0.2-0.3l1.1-1.8h0.7l-2.1,3.5
			V132z M283.9,131.8h0.2v-2.5l1.9-3.2h-0.2l-1.1,2c-0.2,0.3-0.4,0.7-0.5,1l0,0.1H284l0-0.1c-0.2-0.4-0.4-0.8-0.7-1.3l-0.9-1.7h-0.2
			l1.8,3.2L283.9,131.8L283.9,131.8z"/>
	</g>
	<g>
		<polygon points="277.4,131.9 277.9,131.9 277.9,126.3 279.8,126.3 279.8,125.9 275.5,125.9 275.5,126.3 277.4,126.3 		"/>
		<path d="M278,132h-0.7v-5.6h-1.9v-0.6h4.6v0.6H278L278,132L278,132z M277.5,131.8h0.2v-5.6h1.9V126h-4.1v0.1h1.9V131.8
			L277.5,131.8z"/>
	</g>
	<g>
		<rect x="272.7" y="125.9" width="0.4" height="5.9"/>
		<path d="M273.2,132h-0.7v-6.2h0.7V132z M272.8,131.8h0.2v-5.7h-0.2V131.8z"/>
	</g>
	<g>
		<polygon points="266.9,131.9 270,131.9 270,131.5 267.4,131.5 267.4,125.9 266.9,125.9 		"/>
		<path d="M270.1,132h-3.3v-6.2h0.7v5.6h2.6V132z M267.1,131.8h2.9v-0.1h-2.7V126h-0.2L267.1,131.8L267.1,131.8z"/>
	</g>
	<g>
		<path d="M262.1,125.9h-0.4l-2.2,5.9h0.4l0.7-2.1h2.3l0.7,2.1h0.4L262.1,125.9z M260.8,129.5l0.7-2c0.1-0.4,0.2-0.7,0.3-1h0
			c0.1,0.3,0.2,0.6,0.3,1.1l0.7,2H260.8z"/>
		<path d="M264.4,132h-0.7l-0.7-2.1h-2.2l-0.7,2.1h-0.7l2.3-6.2h0.6L264.4,132z M263.9,131.8h0.2l-2.1-5.7h-0.2l-2.1,5.7h0.2
			l0.7-2.1h2.5L263.9,131.8z M263.1,129.6h-2.4l0.8-2.2c0.1-0.4,0.2-0.7,0.3-1l0-0.1h0.2l0,0.1c0.1,0.3,0.2,0.6,0.3,1.1L263.1,129.6
			z M261,129.3h1.7l-0.7-1.8c-0.1-0.3-0.1-0.5-0.2-0.7c0,0.2-0.1,0.4-0.2,0.6L261,129.3z"/>
	</g>
	<g>
		<path d="M253,125.9v3.6c0,1.8,0.9,2.4,2,2.4c1.1,0,2.1-0.7,2.1-2.5v-3.6h-0.4v3.6c0,1.5-0.7,2.1-1.7,2.1c-0.9,0-1.6-0.6-1.6-2.1
			v-3.6L253,125.9L253,125.9z"/>
		<path d="M255,132.1c-1.3,0-2.1-0.9-2.1-2.5v-3.7h0.7v3.7c0,1.3,0.5,2,1.5,2c1,0,1.6-0.7,1.6-2v-3.7h0.7v3.7
			C257.3,131.9,255.7,132.1,255,132.1z M253.2,126.1v3.5c0,1.5,0.7,2.3,1.9,2.3c0.7,0,2-0.3,2-2.4V126h-0.2v3.5
			c0,1.9-1.1,2.2-1.8,2.2c-0.5,0-1.7-0.2-1.7-2.2V126L253.2,126.1L253.2,126.1z"/>
	</g>
	<g>
		<path d="M248.4,131.9L248.4,131.9c1.1-0.4,1.9-1.4,1.9-3c0-1.8-1.1-3-2.6-3c-1.5,0-2.7,1.1-2.7,3.1c0,1.9,1.2,3,2.6,3
			c0.1,0,0.2,0,0.3,0.1c0.6,0.2,1.5,0.4,2.2,0.6l0.1-0.4C249.8,132.2,249,132,248.4,131.9z M247.6,131.6L247.6,131.6
			c-1.4,0-2.2-1.3-2.2-2.7c0-1.4,0.7-2.8,2.2-2.8c1.5,0,2.2,1.4,2.2,2.7C249.8,130.3,249,131.6,247.6,131.6z"/>
		<path d="M250.2,132.8L250.2,132.8c-0.9-0.2-1.7-0.5-2.3-0.6c0,0-0.1,0-0.1,0c-0.1,0-0.1,0-0.2,0c-1.7,0-2.8-1.3-2.8-3.1
			c0-1.9,1.1-3.3,2.8-3.3c1.6,0,2.7,1.3,2.7,3.1c0,1.5-0.6,2.5-1.7,3c0.6,0.1,1.1,0.3,1.6,0.3l0.1,0L250.2,132.8z M247.6,131.9
			c0.1,0,0.2,0,0.3,0c0,0,0,0,0.1,0c0.6,0.2,1.4,0.4,2.1,0.6l0-0.1c-0.5-0.1-1.1-0.2-1.6-0.3l-0.3-0.1v-0.2l0.1,0
			c1.1-0.4,1.8-1.4,1.8-2.9c0-1.7-1-2.9-2.5-2.9c-1.5,0-2.6,1.2-2.6,3C245.1,130.7,246.1,131.8,247.6,131.9L247.6,131.9z
			 M247.6,131.8L247.6,131.8c-1.5,0-2.3-1.4-2.3-2.8c0-1.4,0.7-2.9,2.3-2.9c1.5,0,2.3,1.4,2.3,2.8
			C249.9,130.6,249,131.8,247.6,131.8z M247.6,126.3c-1.5,0-2.1,1.3-2.1,2.7c0,1.2,0.7,2.5,2.1,2.5l0,0c1.4,0,2.1-1.4,2.1-2.6
			C249.7,127.6,249,126.3,247.6,126.3z"/>
	</g>
	<g>
		<path d="M238.1,130.4c0.4,0,0.8-0.4,0.8-0.8s-0.4-0.8-0.8-0.8c-0.4,0-0.8,0.4-0.8,0.8S237.7,130.4,238.1,130.4L238.1,130.4z"/>
		<path d="M238.1,130.5L238.1,130.5c-0.5,0-0.9-0.4-0.9-0.9c0-0.2,0.1-0.5,0.3-0.6c0.2-0.2,0.4-0.3,0.6-0.3c0.5,0,0.9,0.4,0.9,0.9
			C239,130.1,238.6,130.5,238.1,130.5z M238.1,128.9c-0.2,0-0.4,0.1-0.5,0.2c-0.1,0.1-0.2,0.3-0.2,0.5c0,0.4,0.3,0.7,0.6,0.7l0,0
			c0.4,0,0.7-0.3,0.7-0.7S238.5,128.9,238.1,128.9z"/>
	</g>
	<g>
		<polygon points="230.9,128.6 228.6,128.6 228.6,126.3 231.1,126.3 231.1,125.9 228.1,125.9 228.1,131.9 231.2,131.9 231.2,131.5 
			228.6,131.5 228.6,128.9 230.9,128.9 		"/>
		<path d="M231.3,132H228v-6.2h3.2v0.6h-2.5v2.1h2.4v0.6h-2.4v2.4h2.7V132z M228.3,131.8h2.9v-0.1h-2.7v-2.9h2.4v-0.1h-2.4v-2.5h2.5
			V126h-2.7V131.8z"/>
	</g>
	<g>
		<path d="M225.2,131.4c-0.3,0.2-0.8,0.3-1.3,0.3c-1.6,0-2.5-1.1-2.5-2.7c0-1.7,1-2.8,2.6-2.8c0.5,0,0.9,0.1,1.2,0.3l0.1-0.4
			c-0.2-0.1-0.6-0.3-1.4-0.3c-1.9,0-3,1.3-3,3.1c0,2.1,1.4,3,2.8,3c0.7,0,1.3-0.1,1.6-0.3L225.2,131.4z"/>
		<path d="M223.8,132.1c-1.4,0-2.9-0.8-2.9-3.1c0-1.9,1.3-3.2,3.1-3.2c0.8,0,1.3,0.2,1.4,0.3l0.1,0l-0.2,0.6l-0.1,0
			c-0.3-0.2-0.7-0.2-1.2-0.2c-1.6,0-2.5,1-2.5,2.6c0,1.6,0.9,2.5,2.4,2.5c0.5,0,1-0.1,1.3-0.3l0.1,0l0.2,0.6l-0.1,0
			C225.3,131.9,224.7,132.1,223.8,132.1z M224,126c-1.7,0-2.9,1.2-2.9,3c0,2.2,1.5,2.9,2.7,2.9c0.6,0,1.1-0.1,1.5-0.2l0-0.1
			c-0.4,0.1-0.8,0.2-1.3,0.2c-1.6,0-2.6-1.1-2.6-2.8C221.3,127.2,222.3,126.1,224,126c0.5,0.1,0.9,0.2,1.2,0.3l0-0.1
			C225,126.1,224.6,126,224,126z"/>
	</g>
	<g>
		<rect x="217.7" y="125.9" width="0.4" height="5.9"/>
		<path d="M218.2,132h-0.7v-6.2h0.7V132z M217.8,131.8h0.2v-5.7h-0.2V131.8z"/>
	</g>
	<g>
		<path d="M213.1,131.9l2.2-5.9h-0.5l-1.1,3.2c-0.3,0.8-0.6,1.6-0.8,2.3h0c-0.2-0.7-0.4-1.4-0.7-2.3l-1.1-3.2h-0.4l2,5.9H213.1z"/>
		<path d="M213.2,132h-0.6l-2.1-6.2h0.7l1.1,3.4c0.2,0.7,0.4,1.2,0.6,1.8c0.2-0.6,0.4-1.3,0.6-1.9l1.2-3.3h0.7L213.2,132z
			 M212.8,131.8h0.2l2.1-5.7h-0.2l-1.1,3.1c-0.3,0.8-0.6,1.6-0.8,2.3l0,0.1h-0.2l0-0.1c-0.2-0.6-0.4-1.3-0.6-2.2l-1.1-3.2h-0.2
			L212.8,131.8z"/>
	</g>
	<g>
		<path d="M208,130.3c-0.1-0.7-0.4-1.1-0.9-1.3l0,0c0.7-0.2,1.2-0.7,1.2-1.6c0-0.4-0.2-0.8-0.4-1.1c-0.3-0.3-0.8-0.5-1.6-0.5
			c-0.4,0-0.9,0-1.3,0.1v5.9h0.4v-2.7h0.9c0.8,0,1.1,0.4,1.3,1.3c0.2,0.7,0.3,1.3,0.4,1.4h0.4C208.4,131.6,208.2,131.2,208,130.3z
			 M205.4,128.8v-2.5c0.1,0,0.5-0.1,0.9-0.1c0.9,0,1.6,0.4,1.6,1.3c0,0.8-0.6,1.3-1.5,1.3H205.4z"/>
		<path d="M208.7,132H208l0-0.1c-0.1-0.2-0.2-0.7-0.4-1.5c-0.2-0.8-0.5-1.1-1.2-1.2h-0.8v2.7h-0.7v-6.1l0.1,0
			c0.4-0.1,0.9-0.1,1.3-0.1c0.8,0,1.3,0.2,1.7,0.5c0.3,0.3,0.5,0.7,0.5,1.1c0,0.7-0.4,1.3-1,1.6c0.4,0.2,0.6,0.6,0.7,1.2
			c0.2,0.8,0.3,1.3,0.4,1.6L208.7,132z M208.1,131.8h0.2c-0.1-0.3-0.2-0.7-0.4-1.5l0,0c-0.1-0.6-0.4-1.1-0.8-1.2l-0.1,0v-0.2l0.1,0
			c0.7-0.2,1.1-0.7,1.1-1.4c0-0.4-0.1-0.7-0.4-1c-0.3-0.3-0.8-0.5-1.5-0.5c-0.4,0-0.8,0-1.2,0.1v5.7h0.2V129h1.1
			c0.8,0,1.3,0.5,1.5,1.4C207.9,131,208,131.5,208.1,131.8z M206.3,128.9h-1.1v-2.7l0.1,0c0.1,0,0.4-0.1,0.9-0.1
			c1.1,0,1.7,0.5,1.7,1.4C208,128.4,207.3,128.9,206.3,128.9z M205.5,128.7h0.8c0.9,0,1.4-0.5,1.4-1.2c0-1-0.8-1.1-1.5-1.1
			c-0.4,0-0.6,0-0.7,0L205.5,128.7L205.5,128.7z"/>
	</g>
	<g>
		<polygon points="201.9,128.6 199.5,128.6 199.5,126.3 202,126.3 202,125.9 199.1,125.9 199.1,131.9 202.2,131.9 202.2,131.5 
			199.5,131.5 199.5,128.9 201.9,128.9 		"/>
		<path d="M202.3,132H199v-6.2h3.2v0.6h-2.5v2.1h2.4v0.6h-2.4v2.4h2.7C202.3,131.4,202.3,132,202.3,132z M199.2,131.8h2.9v-0.1h-2.7
			v-2.9h2.4v-0.1h-2.4v-2.5h2.5V126h-2.7C199.2,126,199.2,131.8,199.2,131.8z"/>
	</g>
	<g>
		<path d="M192.9,131.6c0.3,0.2,0.9,0.4,1.4,0.4c1.3,0,1.9-0.8,1.9-1.6c0-0.9-0.5-1.3-1.5-1.7c-0.9-0.3-1.2-0.7-1.2-1.3
			c0-0.5,0.3-1.1,1.3-1.1c0.5,0,0.9,0.2,1.1,0.3l0.2-0.4c-0.2-0.1-0.6-0.3-1.2-0.3c-1,0-1.7,0.6-1.7,1.5c0,0.8,0.6,1.3,1.5,1.7
			c0.9,0.3,1.2,0.7,1.2,1.4c0,0.7-0.6,1.2-1.4,1.2c-0.5,0-1-0.2-1.3-0.4L192.9,131.6z"/>
		<path d="M194.3,132.1c-0.5,0-1.2-0.2-1.5-0.4l-0.1,0l0.3-0.6l0.1,0.1c0.3,0.2,0.8,0.4,1.2,0.4c0.8,0,1.3-0.4,1.3-1.1
			c0-0.6-0.3-1-1.1-1.3c-1.1-0.4-1.6-1-1.6-1.7c0-0.9,0.8-1.6,1.8-1.6c0.6,0,1,0.1,1.2,0.3l0.1,0l-0.3,0.6l-0.1-0.1
			c-0.1-0.1-0.5-0.3-1-0.3c-0.9,0-1.2,0.5-1.2,1c0,0.6,0.3,0.9,1.1,1.2c1,0.4,1.6,0.8,1.6,1.8C196.3,131.2,195.7,132.1,194.3,132.1z
			 M193,131.5c0.3,0.2,0.8,0.3,1.3,0.3c1.3,0,1.8-0.8,1.8-1.5c0-0.8-0.4-1.2-1.4-1.6c-0.8-0.3-1.3-0.7-1.3-1.4
			c0-0.6,0.4-1.2,1.4-1.2c0.4,0,0.8,0.1,1,0.2l0.1-0.1c-0.2-0.1-0.6-0.2-1-0.2c-1,0-1.6,0.6-1.6,1.4c0,0.7,0.5,1.2,1.4,1.5
			c0.9,0.3,1.3,0.8,1.3,1.5c0,0.8-0.6,1.4-1.6,1.4c-0.4,0-0.9-0.1-1.2-0.3L193,131.5z"/>
	</g>
	<g>
		<path d="M186,130.4c0.4,0,0.8-0.4,0.8-0.8s-0.4-0.8-0.8-0.8s-0.8,0.4-0.8,0.8S185.5,130.4,186,130.4L186,130.4z"/>
		<path d="M186,130.5L186,130.5c-0.5,0-0.9-0.4-0.9-0.9c0-0.2,0.1-0.5,0.3-0.6c0.2-0.2,0.4-0.3,0.6-0.3c0.5,0,0.9,0.4,0.9,0.9
			C186.9,130.1,186.5,130.5,186,130.5z M186,128.9c-0.2,0-0.4,0.1-0.5,0.2c-0.1,0.1-0.2,0.3-0.2,0.5c0,0.4,0.3,0.7,0.6,0.7l0,0
			c0.4,0,0.7-0.3,0.7-0.7S186.3,128.9,186,128.9z"/>
	</g>
	<g>
		<path d="M174.9,131.9v-3c0-1,0-1.6,0-2.4h0c0.3,0.6,0.7,1.2,1.1,1.9l2.3,3.5h0.4v-5.9h-0.4v3c0,0.9,0,1.6,0.1,2.4h0
			c-0.3-0.6-0.6-1.1-1.1-1.9l-2.3-3.5h-0.4v5.9H174.9z"/>
		<path d="M178.8,132h-0.6l-2.3-3.5c-0.3-0.5-0.6-1-0.9-1.5c0,0.6,0,1.1,0,1.9v3.1h-0.6v-6.2h0.6l2.3,3.6c0.4,0.6,0.6,1,0.9,1.4
			c0-0.6,0-1.1,0-1.9v-3.1h0.6L178.8,132L178.8,132z M178.3,131.8h0.2v-5.7h-0.2v2.8c0,1,0,1.6,0.1,2.4v0.1l-0.2,0.1l-0.1-0.1
			c-0.3-0.6-0.6-1.1-1.1-1.9l-2.3-3.4h-0.2v5.7h0.2v-2.9c0-1,0-1.6,0-2.4v-0.1l0.2-0.1l0.1,0.1c0.3,0.6,0.7,1.2,1.1,1.9L178.3,131.8
			z"/>
	</g>
	<g>
		<path d="M171.5,128.9h-1.8v0.3h1.4v2.1c-0.2,0.1-0.6,0.2-1.2,0.2c-1.6,0-2.6-1-2.6-2.7c0-1.6,1-2.7,2.6-2.7c0.6,0,1,0.1,1.3,0.3
			l0.1-0.3c-0.2-0.1-0.7-0.3-1.4-0.3c-2,0-3.1,1.4-3.1,3.1c0,1,0.3,1.8,0.8,2.3c0.6,0.6,1.3,0.8,2.1,0.8c0.8,0,1.4-0.2,1.7-0.3
			C171.5,131.7,171.5,128.9,171.5,128.9z"/>
		<path d="M169.7,132.1c-0.9,0-1.6-0.3-2.2-0.8c-0.6-0.5-0.9-1.4-0.9-2.3c0-1.6,1-3.2,3.2-3.2c0.6,0,1.2,0.1,1.4,0.3l0.1,0l-0.2,0.6
			l-0.1,0c-0.3-0.2-0.7-0.2-1.2-0.2c-1.6,0-2.5,1-2.5,2.6c0,1.6,0.9,2.6,2.4,2.6c0.6,0,1-0.1,1.1-0.2v-1.9h-1.4v-0.6h2v2.9l-0.1,0
			C171.3,131.8,170.6,132.1,169.7,132.1z M169.9,126c-2.1,0-3,1.5-3,2.9c0,0.9,0.3,1.7,0.8,2.2c0.5,0.5,1.2,0.7,2,0.7
			c0.8,0,1.3-0.2,1.6-0.3v-2.5h-1.6v0.1h1.4v2.3l-0.1,0c-0.3,0.1-0.7,0.2-1.3,0.2c-1.7,0-2.7-1.1-2.7-2.8
			C167.1,127.2,168.2,126.1,169.9,126c0.5,0.1,0.8,0.2,1.2,0.3l0-0.1C170.9,126.1,170.4,126,169.9,126z"/>
	</g>
	<g>
		<rect x="163.6" y="125.9" width="0.4" height="5.9"/>
		<path d="M164.1,132h-0.7v-6.2h0.7V132z M163.7,131.8h0.2v-5.7h-0.2V131.8z"/>
	</g>
	<g>
		<path d="M157.4,131.6c0.3,0.2,0.9,0.4,1.4,0.4c1.3,0,1.9-0.8,1.9-1.6c0-0.9-0.5-1.3-1.5-1.7c-0.9-0.3-1.2-0.7-1.2-1.3
			c0-0.5,0.3-1.1,1.3-1.1c0.5,0,0.9,0.2,1.1,0.3l0.2-0.4c-0.2-0.1-0.6-0.3-1.2-0.3c-1,0-1.7,0.6-1.7,1.5c0,0.8,0.6,1.3,1.5,1.7
			c0.9,0.3,1.2,0.7,1.2,1.4c0,0.7-0.6,1.2-1.4,1.2c-0.5,0-1-0.2-1.3-0.4L157.4,131.6z"/>
		<path d="M158.8,132.1c-0.5,0-1.2-0.2-1.5-0.4l-0.1,0l0.3-0.6l0.1,0.1c0.3,0.2,0.8,0.4,1.2,0.4c0.8,0,1.3-0.4,1.3-1.1
			c0-0.6-0.3-1-1.1-1.3c-1.1-0.4-1.6-1-1.6-1.7c0-0.9,0.8-1.6,1.8-1.6c0.6,0,1,0.1,1.2,0.3l0.1,0l-0.3,0.6l-0.1-0.1
			c-0.1-0.1-0.5-0.3-1-0.3c-0.9,0-1.2,0.5-1.2,1c0,0.6,0.3,0.9,1.1,1.2c1,0.4,1.6,0.8,1.6,1.8C160.8,131.2,160.2,132.1,158.8,132.1z
			 M157.5,131.5c0.3,0.2,0.8,0.3,1.3,0.3c1.3,0,1.8-0.8,1.8-1.5c0-0.8-0.4-1.2-1.4-1.6c-0.8-0.3-1.3-0.7-1.3-1.4
			c0-0.6,0.4-1.2,1.4-1.2c0.4,0,0.8,0.1,1,0.2l0.1-0.1c-0.2-0.1-0.6-0.2-1-0.2c-1,0-1.6,0.6-1.6,1.4c0,0.7,0.5,1.2,1.4,1.5
			c0.9,0.3,1.3,0.8,1.3,1.5c0,0.8-0.6,1.4-1.6,1.4c-0.4,0-0.9-0.1-1.2-0.3L157.5,131.5z"/>
	</g>
	<g>
		<polygon points="154.6,128.6 152.2,128.6 152.2,126.3 154.8,126.3 154.8,125.9 151.8,125.9 151.8,131.9 154.9,131.9 154.9,131.5 
			152.2,131.5 152.2,128.9 154.6,128.9 		"/>
		<path d="M155,132h-3.3v-6.2h3.2v0.6h-2.5v2.1h2.4v0.6h-2.4v2.4h2.7C155,131.4,155,132,155,132z M152,131.8h2.9v-0.1h-2.7v-2.9h2.4
			v-0.1h-2.4v-2.5h2.5V126H152V131.8z"/>
	</g>
	<g>
		<path d="M148.3,126.7c-0.5-0.5-1.3-0.8-2.4-0.8c-0.6,0-1.1,0-1.5,0.1v5.8c0.4,0,0.9,0,1.3,0c1.1,0,2.1-0.3,2.6-0.9
			c0.5-0.6,0.8-1.4,0.8-2.3C149,127.9,148.7,127.2,148.3,126.7z M145.7,131.6c-0.4,0-0.7,0-1,0v-5.2c0.3,0,0.6-0.1,1.1-0.1
			c1.9,0,2.8,1,2.7,2.5C148.6,130.5,147.6,131.6,145.7,131.6z"/>
		<path d="M145.7,132c-0.6,0-1,0-1.3,0h-0.1v-6.1l0.1,0c0.5-0.1,1-0.1,1.6-0.1c1.1,0,2,0.3,2.5,0.8c0.5,0.5,0.8,1.2,0.8,2.2
			c0,1-0.3,1.7-0.8,2.3C147.8,131.7,146.8,132,145.7,132z M144.5,131.8c0.3,0,0.7,0,1.2,0c1.1,0,2-0.3,2.5-0.9
			c0.5-0.6,0.7-1.3,0.7-2.2c0-0.8-0.2-1.5-0.7-2l0,0c-0.5-0.5-1.3-0.8-2.3-0.8c-0.5,0-0.9,0-1.4,0.1L144.5,131.8L144.5,131.8z
			 M145.7,131.7c-0.5,0-0.8,0-1,0h-0.1v-5.4l0.1,0c0.2,0,0.6-0.1,1.1-0.1c1,0,1.7,0.3,2.2,0.7c0.5,0.5,0.7,1.1,0.7,1.9
			C148.7,130.6,147.6,131.7,145.7,131.7z M144.9,131.4c0.2,0,0.5,0,0.8,0c1.8,0,2.7-1,2.7-2.7c0-0.7-0.2-1.3-0.6-1.7
			c-0.5-0.5-1.1-0.7-2-0.7c-0.4,0-0.7,0-1,0.1V131.4z"/>
	</g>
	<path d="M274.5,95.8c-0.2,0.1-0.5,0.2-0.6,0.4c-0.2,0.2-0.4,0.4-0.5,0.7s-0.2,0.5-0.2,0.8c0,0.3,0,0.5,0.1,0.8
		c0.1,0.2,0.2,0.5,0.4,0.6c0.2,0.2,0.4,0.4,0.6,0.5s0.5,0.1,0.8,0.1c0.3,0,0.5,0,0.8-0.1s0.5-0.3,0.7-0.5s0.3-0.4,0.4-0.6
		c0.1-0.2,0.1-0.5,0.1-0.8c0-0.3,0-0.5-0.1-0.8s-0.2-0.5-0.4-0.6c-0.2-0.2-0.4-0.3-0.6-0.5c-0.2-0.1-0.5-0.1-0.8-0.1
		C275,95.6,274.7,95.7,274.5,95.8 M276.9,98.3c-0.1,0.2-0.2,0.4-0.4,0.6c-0.2,0.2-0.4,0.3-0.6,0.4s-0.4,0.1-0.7,0.1
		c-0.2,0-0.5,0-0.7-0.1c-0.2-0.1-0.4-0.2-0.6-0.4c-0.2-0.2-0.3-0.4-0.4-0.6s-0.1-0.4-0.1-0.7s0-0.5,0.1-0.7s0.2-0.4,0.4-0.6
		c0.2-0.2,0.3-0.3,0.6-0.4c0.2-0.1,0.4-0.1,0.7-0.1s0.5,0,0.7,0.1c0.2,0.1,0.4,0.2,0.6,0.4c0.2,0.2,0.3,0.4,0.4,0.6
		c0.1,0.2,0.1,0.4,0.1,0.7C277,97.9,277,98.1,276.9,98.3 M274.5,96.5v2.3h0.4v-1h0.4l0.5,1h0.5l-0.5-1.1c0.2,0,0.3-0.1,0.4-0.2
		c0.1-0.1,0.1-0.2,0.1-0.4c0-0.2-0.1-0.4-0.2-0.5c-0.2-0.1-0.4-0.2-0.7-0.2L274.5,96.5L274.5,96.5z M275.7,96.8
		c0.1,0.1,0.1,0.2,0.1,0.3c0,0.1,0,0.2-0.1,0.3c-0.1,0-0.2,0.1-0.5,0.1h-0.4v-0.8h0.4C275.5,96.7,275.6,96.8,275.7,96.8"/>
	<path d="M255.7,96v4.5h0.5c0.2-1.2,0.6-2.2,1.4-2.8c0.5-0.5,1.3-0.7,2.5-0.7h1.2v12.9c0,0.8,0,1.4-0.1,1.6
		c-0.1,0.3-0.3,0.5-0.5,0.6c-0.3,0.2-0.7,0.3-1.2,0.3h-0.6v0.5h8.8v-0.5H267c-0.5,0-0.9-0.1-1.1-0.2c-0.3-0.2-0.5-0.4-0.6-0.6
		c-0.1-0.2-0.1-0.7-0.1-1.6V97h1.2c0.8,0,1.3,0.1,1.7,0.2c0.6,0.3,1,0.6,1.3,1.1s0.6,1.2,0.9,2.3h0.5V96L255.7,96L255.7,96z
		 M247.9,104.7v5.2c0,0.8,0,1.4-0.1,1.6c-0.1,0.3-0.3,0.5-0.5,0.6c-0.3,0.2-0.7,0.3-1.2,0.3h-0.6v0.5h8.7v-0.5h-0.6
		c-0.5,0-0.8-0.1-1.1-0.2s-0.5-0.4-0.6-0.6c-0.1-0.2-0.1-0.7-0.1-1.6v-11c0-0.8,0-1.4,0.1-1.6c0.1-0.3,0.3-0.5,0.5-0.6
		c0.3-0.2,0.7-0.3,1.2-0.3h0.6V96h-8.7v0.5h0.6c0.5,0,0.8,0.1,1.1,0.2s0.5,0.4,0.6,0.6c0.1,0.2,0.1,0.7,0.1,1.6v4.7H242v-4.7
		c0-0.8,0-1.4,0.1-1.6c0.1-0.3,0.3-0.5,0.5-0.6c0.3-0.2,0.7-0.3,1.2-0.3h0.6V96h-8.8v0.5h0.6c0.5,0,0.8,0.1,1.1,0.2s0.5,0.4,0.6,0.6
		c0.1,0.2,0.1,0.7,0.1,1.6v11c0,0.8,0,1.4-0.1,1.6c-0.1,0.3-0.3,0.5-0.5,0.6c-0.3,0.2-0.7,0.3-1.2,0.3h-0.6v0.5h8.8v-0.5h-0.6
		c-0.5,0-0.8-0.1-1.1-0.2c-0.3-0.2-0.5-0.4-0.6-0.6c-0.1-0.2-0.1-0.7-0.1-1.6v-5.2H247.9z M232.4,95.6c-0.2,0.5-0.3,0.8-0.6,1
		c-0.2,0.2-0.4,0.3-0.6,0.3c-0.1,0-0.6-0.1-1.4-0.5c-0.8-0.3-1.4-0.5-1.7-0.6c-0.7-0.1-1.4-0.2-2.3-0.2c-2.7,0-4.9,0.9-6.7,2.6
		c-1.8,1.7-2.7,3.9-2.7,6.4c0,1.4,0.3,2.7,0.9,3.8c0.5,0.9,1.1,1.7,1.9,2.4s1.7,1.3,2.8,1.7c1.1,0.4,2.4,0.6,4,0.6
		c1.2,0,2.4-0.1,3.6-0.4c1.1-0.2,2.3-0.6,3.3-1.1v-3.5c0-0.6,0-1,0.1-1.1c0.1-0.3,0.3-0.5,0.6-0.6c0.2-0.1,0.7-0.2,1.3-0.3v-0.5
		h-8.1v0.5h0.4c0.4,0,0.7,0.1,1,0.2c0.3,0.2,0.5,0.3,0.6,0.5c0.1,0.2,0.1,0.6,0.1,1.3v3.5c-0.5,0.2-0.9,0.3-1.3,0.4
		c-0.4,0.1-0.8,0.1-1.2,0.1c-1.1,0-2.2-0.3-3-0.9c-0.8-0.6-1.5-1.5-1.8-2.7c-0.4-1.2-0.6-2.6-0.6-4.2c0-1.3,0.2-2.6,0.5-3.9
		c0.3-1.3,0.9-2.3,1.8-2.9c0.8-0.7,1.9-1.1,3.1-1.1c1.3,0,2.5,0.4,3.6,1.3c1.1,0.8,1.9,2.1,2.5,3.7h0.5v-5.9L232.4,95.6L232.4,95.6z
		 M214.3,112.3c-0.5,0-0.8-0.1-1.1-0.2c-0.3-0.2-0.5-0.4-0.6-0.6c-0.1-0.2-0.1-0.7-0.1-1.6v-11c0-0.8,0-1.4,0.1-1.6
		c0.1-0.3,0.3-0.5,0.5-0.6c0.3-0.2,0.7-0.3,1.2-0.3h0.6V96h-8.8v0.5h0.6c0.5,0,0.8,0.1,1.1,0.2s0.5,0.4,0.6,0.6
		c0.1,0.2,0.1,0.7,0.1,1.6v11c0,0.8,0,1.4-0.1,1.6c-0.1,0.3-0.3,0.5-0.5,0.6c-0.3,0.2-0.7,0.3-1.2,0.3h-0.6v0.5h8.8v-0.5H214.3z
		 M204.2,106.9c-0.4,1.3-0.8,2.3-1.2,3c-0.4,0.7-0.9,1.2-1.5,1.5c-0.6,0.3-1.3,0.5-2.2,0.5h-1.4c-0.8,0-1.3,0-1.5-0.1
		c-0.3-0.1-0.5-0.3-0.6-0.5s-0.1-0.8-0.1-1.6V98.9c0-0.8,0-1.4,0.1-1.6c0.1-0.3,0.3-0.5,0.5-0.6c0.3-0.2,0.7-0.3,1.2-0.3h0.7V96h-9
		v0.5h0.6c0.5,0,0.8,0.1,1.1,0.2c0.3,0.2,0.5,0.4,0.6,0.6c0.1,0.2,0.1,0.7,0.1,1.6v11c0,0.8,0,1.4-0.1,1.6c-0.1,0.3-0.3,0.5-0.5,0.6
		c-0.3,0.2-0.7,0.3-1.2,0.3h-0.6v0.5h14.9l0.6-5.9L204.2,106.9L204.2,106.9z M180.3,109.6c-0.4,0.4-0.6,0.9-0.6,1.5
		c0,0.6,0.2,1.1,0.6,1.5c0.4,0.4,0.9,0.6,1.5,0.6c0.6,0,1.1-0.2,1.5-0.6c0.4-0.4,0.6-0.9,0.6-1.5c0-0.6-0.2-1.1-0.6-1.5
		c-0.4-0.4-0.9-0.6-1.5-0.6C181.2,108.9,180.7,109.2,180.3,109.6 M174.4,98.5c1.2-1,2-1.5,2.3-1.7s0.8-0.3,1.4-0.3V96h-6.5v0.5
		c0.7,0,1.2,0.1,1.3,0.2c0.4,0.2,0.5,0.4,0.5,0.7c0,0.4-0.4,1-1.3,1.7l-6.2,5v-5.2c0-0.8,0-1.4,0.1-1.6c0.1-0.3,0.3-0.5,0.5-0.6
		c0.3-0.2,0.7-0.2,1.3-0.2V96h-8.3v0.5h0.6c0.5,0,0.8,0.1,1.1,0.2c0.3,0.2,0.5,0.4,0.6,0.6c0.1,0.2,0.1,0.7,0.1,1.6v11
		c0,0.8,0,1.4-0.1,1.6c-0.1,0.3-0.3,0.5-0.5,0.6c-0.3,0.2-0.7,0.3-1.2,0.3h-0.6v0.5h8.5v-0.5c-0.6,0-1.1-0.1-1.3-0.2
		c-0.3-0.1-0.5-0.3-0.6-0.6c-0.1-0.2-0.1-0.8-0.1-1.6v-4.6l0.6-0.5l3.8,4.8c0.8,1,1.1,1.6,1.1,1.9c0,0.2-0.1,0.3-0.2,0.5
		s-0.5,0.2-1.1,0.3v0.5h8.7v-0.5c-0.5,0-1-0.1-1.4-0.4c-0.6-0.4-1.3-1.1-2.2-2.1l-5.9-7.4L174.4,98.5z"/>
	<path d="M216.5,70.4h18v-0.8c-1.8,0-3.4-1-4.6-3l-11.1-18.5l5.2-4.9c1.5-1.3,5.4-4,7.2-4h0.2v-0.8h-12.8v0.8c2,0,4.6,3,1,6.6
		l-8.7,8.4v-7.9c0-4.7,1.3-7.2,3.7-7.2v-0.7h-17.5V39c3,0,4.7,1.7,4.7,4.9V64c0,3.7-2.5,5.7-4.7,5.7v0.7h17v-0.7
		c-2-0.7-3.2-2.5-3.2-5.7v-8.6l0.7-0.5l6.7,10.6c1.5,2.3,0.2,3.9-1.8,4V70.4z"/>
	<path d="M241.2,54c0,14.4-11.6,26.2-25.9,26.2S189.4,68.5,189.4,54s11.6-26.2,25.9-26.2S241.2,39.6,241.2,54 M243.4,54
		c0-15.6-12.6-28.4-28.1-28.4S187.2,38.5,187.2,54c0,15.7,12.6,28.5,28.1,28.5S243.4,69.8,243.4,54"/>
</g>
</svg>
